<svg xmlns="http://www.w3.org/2000/svg" viewBox="0 0 32 32" width="32" height="32">
  <!-- Spiral background -->
  <path d="M 16 16 m -12 0 a 12 12 0 1 1 24 0 a 12 12 0 1 1 -24 0" fill="none" stroke="#0ea5e9" stroke-width="2"/>
  
  <!-- Inner spiral -->
  <path d="M 16 16 m -8 0 a 8 8 0 1 1 16 0 a 8 8 0 1 1 -16 0" fill="none" stroke="#38bdf8" stroke-width="2"/>
  
  <!-- Central core -->
  <circle cx="16" cy="16" r="4" fill="#ffffff" stroke="#0ea5e9" stroke-width="1"/>
  <circle cx="16" cy="16" r="2" fill="#0ea5e9"/>
  
  <!-- Spiral nodes -->
  <circle cx="28" cy="16" r="1.5" fill="#10b981"/>
  <circle cx="22" cy="22" r="1.5" fill="#10b981"/>
  <circle cx="16" cy="28" r="1.5" fill="#10b981"/>
  <circle cx="10" cy="22" r="1.5" fill="#10b981"/>
  <circle cx="4" cy="16" r="1.5" fill="#10b981"/>
  <circle cx="10" cy="10" r="1.5" fill="#10b981"/>
  <circle cx="16" cy="4" r="1.5" fill="#10b981"/>
  <circle cx="22" cy="10" r="1.5" fill="#10b981"/>
  
  <!-- Progress indicators -->
  <circle cx="28" cy="16" r="0.8" fill="#fbbf24"/>
  <circle cx="22" cy="22" r="0.8" fill="#fbbf24"/>
  <circle cx="16" cy="28" r="0.8" fill="#fbbf24"/>
  
  <!-- Connection arrows -->
  <path d="M 26 16 L 24 18 L 26 20" stroke="#10b981" stroke-width="1.5" fill="none" stroke-linecap="round" stroke-linejoin="round"/>
  <path d="M 20 24 L 18 22 L 16 24" stroke="#10b981" stroke-width="1.5" fill="none" stroke-linecap="round" stroke-linejoin="round"/>
  <path d="M 14 28 L 12 26 L 10 28" stroke="#10b981" stroke-width="1.5" fill="none" stroke-linecap="round" stroke-linejoin="round"/>
</svg>
